<?xml version="1.0" encoding="UTF-8" standalone="no"?>
<svg xmlns:dc="http://purl.org/dc/elements/1.1/" xmlns:cc="http://creativecommons.org/ns#" xmlns:rdf="http://www.w3.org/1999/02/22-rdf-syntax-ns#" xmlns:svg="http://www.w3.org/2000/svg" xmlns="http://www.w3.org/2000/svg" xmlns:sodipodi="http://sodipodi.sourceforge.net/DTD/sodipodi-0.dtd" xmlns:inkscape="http://www.inkscape.org/namespaces/inkscape" viewBox="0 -256 1850 1850" id="svg2989" version="1.1" inkscape:version="0.48.3.1 r9886" width="100%" height="100%" sodipodi:docname="comment_alt_font_awesome.svg">
  <!-- src: https://commons.wikimedia.org/wiki/File:Comment_alt_font_awesome.svg -->
  <metadata id="metadata2999">
    <rdf:RDF>
      <cc:Work rdf:about="">
        <dc:format>image/svg+xml</dc:format>
        <dc:type rdf:resource="http://purl.org/dc/dcmitype/StillImage"/>
      </cc:Work>
    </rdf:RDF>
  </metadata>
  <defs id="defs2997"/>
  <sodipodi:namedview pagecolor="#ffffff" bordercolor="#666666" borderopacity="1" objecttolerance="10" gridtolerance="10" guidetolerance="10" inkscape:pageopacity="0" inkscape:pageshadow="2" inkscape:window-width="640" inkscape:window-height="480" id="namedview2995" showgrid="false" inkscape:zoom="0.13169643" inkscape:cx="896" inkscape:cy="896" inkscape:window-x="0" inkscape:window-y="25" inkscape:window-maximized="0" inkscape:current-layer="svg2989"/>
  <g transform="matrix(1,0,0,-1,22.779661,1183.966)" id="g2991">
    <path d="M 896,1152 Q 692,1152 514.5,1082.5 337,1013 232.5,895 128,777 128,640 128,528 199.5,426.5 271,325 401,251 l 87,-50 -27,-96 Q 437,14 391,-67 543,-4 666,104 l 43,38 57,-6 q 69,-8 130,-8 204,0 381.5,69.5 177.5,69.5 282,187.5 104.5,118 104.5,255 0,137 -104.5,255 -104.5,118 -282,187.5 Q 1100,1152 896,1152 z M 1792,640 Q 1792,466 1672,318.5 1552,171 1346,85.5 1140,0 896,0 826,0 751,8 553,-167 291,-234 242,-248 177,-256 h -5 q -15,0 -27,10.5 -12,10.5 -16,27.5 v 1 q -3,4 -0.5,12 2.5,8 2,10 -0.5,2 4.5,9.5 l 6,9 q 0,0 7,8.5 7,8.5 8,9 7,8 31,34.5 24,26.5 34.5,38 10.5,11.5 31,39.5 20.5,28 32.5,51 12,23 27,59 15,36 26,76 Q 181,228 90.5,359 0,490 0,640 q 0,174 120,321.5 120,147.5 326,233 206,85.5 450,85.5 244,0 450,-85.5 206,-85.5 326,-233 Q 1792,814 1792,640 z" id="path2993" inkscape:connector-curvature="0" style="fill:currentColor"/>
  </g>
</svg>
